<svg width="24" height="24" viewBox="0 0 24 24" fill="none" xmlns="http://www.w3.org/2000/svg">
<path d="M4.74063 19H7.89701L17.3736 18.9624H19.2689C24.323 18.9625 25.5866 12.6145 21.796 10.0604C23.6916 0.478882 10.4242 -0.796072 9.15981 7.50494C7.89672 6.22855 4.73979 6.86738 4.73979 9.42069C-1.5795 9.42069 -1.58064 19 4.74063 19Z" fill="#FFD600"/>
<path d="M12.5 23C12.5 23.2761 12.7239 23.5 13 23.5C13.2761 23.5 13.5 23.2761 13.5 23L12.5 23ZM13.3536 10.6464C13.1583 10.4512 12.8417 10.4512 12.6464 10.6464L9.46447 13.8284C9.2692 14.0237 9.2692 14.3403 9.46447 14.5355C9.65973 14.7308 9.97631 14.7308 10.1716 14.5355L13 11.7071L15.8284 14.5355C16.0237 14.7308 16.3403 14.7308 16.5355 14.5355C16.7308 14.3403 16.7308 14.0237 16.5355 13.8284L13.3536 10.6464ZM13.5 23L13.5 11L12.5 11L12.5 23L13.5 23Z" fill="#232323"/>
</svg>
