<svg width="24" height="24" viewBox="0 0 24 24" fill="none" xmlns="http://www.w3.org/2000/svg">
<path fill-rule="evenodd" clip-rule="evenodd" d="M10.1537 3.125C10.0067 3.125 9.87249 3.24853 9.87249 3.41964V4.64218L14.1333 4.64167L14.1336 3.41973C14.1336 3.24858 13.9994 3.125 13.8523 3.125H10.1537ZM14.6955 5.7666L6.03356 5.76725L6.60687 19.718C6.61368 19.8835 6.74505 20 6.88786 20H17.1174C17.2603 20 17.3917 19.8835 17.3984 19.7179L17.9667 5.76715L14.6955 5.7666ZM19.0926 5.76725L18.5225 19.7637C18.4918 20.5165 17.8794 21.125 17.1174 21.125H6.88786C6.12608 21.125 5.51375 20.5168 5.48282 19.7642L4.90761 5.76725H3.5625C3.25184 5.76725 3 5.51541 3 5.20475C3 4.89409 3.25184 4.64225 3.5625 4.64225H8.74749V3.41964C8.74749 2.64398 9.36877 2 10.1537 2H13.8523C14.6375 2 15.2588 2.64422 15.2586 3.42002L15.2583 4.6417L20.4375 4.64225C20.7482 4.64225 21 4.89409 21 5.20475C21 5.51541 20.7482 5.76725 20.4375 5.76725H19.0926ZM10.3326 8C10.6432 8 10.8951 8.25184 10.8951 8.5625V17.1339C10.8951 17.4446 10.6432 17.6964 10.3326 17.6964C10.0219 17.6964 9.77009 17.4446 9.77009 17.1339V8.5625C9.77009 8.25184 10.0219 8 10.3326 8ZM13.6674 8C13.9781 8 14.2299 8.25184 14.2299 8.5625V17.1339C14.2299 17.4446 13.9781 17.6964 13.6674 17.6964C13.3568 17.6964 13.1049 17.4446 13.1049 17.1339V8.5625C13.1049 8.25184 13.3568 8 13.6674 8Z" fill="#676767"/>
</svg>
