<svg width="77" height="96" viewBox="0 0 77 96" fill="none" xmlns="http://www.w3.org/2000/svg">
<g clip-path="url(#clip0_6_19)">
<path d="M5 96H72C74.7614 96 77 93.7614 77 91V16L60 0H5C2.23858 0 0 2.23857 0 5V91C0 93.7614 2.23858 96 5 96Z" fill="#ACADB5"/>
<path d="M65 16H77L60 0L60 11C60 13.7614 62.2386 16 65 16Z" fill="#FFD600"/>
<path d="M33.6241 41L29.6191 35.57L33.3391 30.5H32.1391L28.9891 34.79L25.8241 30.5H24.5491L28.2841 35.6L24.2941 41H25.5691L28.9441 36.38L32.3341 41H33.6241ZM35.9766 41H42.9666V40.04H37.0866V30.5H35.9766V41ZM48.3374 41.09C51.0224 41.09 52.2524 39.77 52.2524 38.225C52.2524 34.4 45.7874 36.14 45.7874 33.26C45.7874 32.21 46.6424 31.355 48.5624 31.355C49.4924 31.355 50.5424 31.64 51.4424 32.225L51.8174 31.34C50.9774 30.755 49.7474 30.41 48.5624 30.41C45.8924 30.41 44.6924 31.745 44.6924 33.29C44.6924 37.175 51.1574 35.405 51.1574 38.285C51.1574 39.32 50.3024 40.145 48.3374 40.145C46.9574 40.145 45.6224 39.605 44.8724 38.87L44.4374 39.725C45.2174 40.535 46.7624 41.09 48.3374 41.09Z" fill="white"/>
<path d="M56 69.5L21 69.5" stroke="white"/>
<path d="M32.5 77L32.5 53" stroke="white"/>
<path d="M44.4999 77L44.4999 53" stroke="white"/>
<path d="M56 61.5L21 61.5" stroke="white"/>
<rect x="20.5" y="53.5" width="36" height="23" rx="1.5" stroke="white"/>
</g>
<defs>
<clipPath id="clip0_6_19">
<rect width="77" height="96" fill="white"/>
</clipPath>
</defs>
</svg>
