<svg width="24" height="24" viewBox="0 0 24 24" fill="none" xmlns="http://www.w3.org/2000/svg">
<path d="M15.6005 9.66766C15.3446 9.52522 15.0157 9.52522 14.7232 9.66766L12.6762 10.8427L11.2872 11.5905L9.27676 12.7656C9.02089 12.908 8.69191 12.908 8.39948 12.7656L6.82768 11.8398C6.5718 11.6973 6.38903 11.4125 6.38903 11.092V9.31157C6.38903 9.02671 6.53525 8.74184 6.82768 8.5638L8.39948 7.67359C8.65535 7.53116 8.98433 7.53116 9.27676 7.67359L10.8486 8.59941C11.1044 8.74184 11.2872 9.02671 11.2872 9.34718V10.5223L12.6762 9.73887V8.52819C12.6762 8.24332 12.53 7.95846 12.2376 7.78042L9.31332 6.10682C9.05744 5.96439 8.72846 5.96439 8.43603 6.10682L5.43864 7.81602C5.14621 7.95846 5 8.24332 5 8.52819V11.8754C5 12.1602 5.14621 12.4451 5.43864 12.6231L8.39948 14.2967C8.65535 14.4392 8.98433 14.4392 9.27676 14.2967L11.2872 13.1573L12.6762 12.3739L14.6867 11.2344C14.9426 11.092 15.2715 11.092 15.564 11.2344L17.1358 12.1246C17.3916 12.2671 17.5744 12.5519 17.5744 12.8724V14.6528C17.5744 14.9377 17.4282 15.2226 17.1358 15.4006L15.6005 16.2908C15.3446 16.4332 15.0157 16.4332 14.7232 16.2908L13.1514 15.4006C12.8956 15.2582 12.7128 14.9733 12.7128 14.6528V13.5134L11.3238 14.2967V15.4718C11.3238 15.7567 11.47 16.0415 11.7624 16.2196L14.7232 17.8932C14.9791 18.0356 15.3081 18.0356 15.6005 17.8932L18.5614 16.2196C18.8172 16.0772 19 15.7923 19 15.4718V12.089C19 11.8042 18.8538 11.5193 18.5614 11.3412L15.6005 9.66766Z" fill="#8247E5"/>
</svg>
