<svg width="24" height="24" viewBox="0 0 24 24" fill="none" xmlns="http://www.w3.org/2000/svg">
<path d="M11.9907 7.31578H3.75737L3.78364 7.34252C3.32701 7.4505 3 7.8718 3 8.35439V18.9665C3 19.528 3.4422 20.004 4.01461 20.004H17.4301C18.0035 20.004 18.4447 19.5255 18.4447 18.965V13.0044C18.2075 13.1516 17.9561 13.2768 17.6931 13.3769V18.965C17.6931 19.1371 17.5622 19.2524 17.4301 19.2524H4.01461C3.88139 19.2524 3.75157 19.1375 3.75157 18.9665V8.35439C3.75157 8.18257 3.88221 8.06735 4.01461 8.06735H4.49585L6.80552 10.4179C6.9941 10.6098 7.25063 10.7199 7.52079 10.7199H11.9908C11.8991 10.4786 11.8264 10.2275 11.7744 9.96837H7.52079C7.45647 9.96837 7.39186 9.94231 7.3416 9.89116L5.54952 8.06735H11.7744C11.8263 7.80825 11.8991 7.55707 11.9907 7.31578Z" fill="#676767"/>
<path fill-rule="evenodd" clip-rule="evenodd" d="M16.1524 4.75157C13.9033 4.75157 12.0564 6.64827 12.0564 9.0178C12.0564 11.3873 13.9033 13.284 16.1524 13.284C18.4015 13.284 20.2484 11.3873 20.2484 9.0178C20.2484 6.64827 18.4015 4.75157 16.1524 4.75157ZM11.3048 9.0178C11.3048 6.2599 13.462 4 16.1524 4C18.8428 4 21 6.2599 21 9.0178C21 11.7757 18.8428 14.0356 16.1524 14.0356C13.462 14.0356 11.3048 11.7757 11.3048 9.0178ZM16.1524 6.65258C16.3599 6.65258 16.5282 6.82083 16.5282 7.02837V8.64202H18.0689C18.2764 8.64202 18.4447 8.81026 18.4447 9.0178C18.4447 9.22534 18.2764 9.39358 18.0689 9.39358H16.5282V11.0072C16.5282 11.2148 16.3599 11.383 16.1524 11.383C15.9449 11.383 15.7766 11.2148 15.7766 11.0072V9.39358H14.2359C14.0284 9.39358 13.8601 9.22534 13.8601 9.0178C13.8601 8.81026 14.0284 8.64202 14.2359 8.64202H15.7766V7.02837C15.7766 6.82083 15.9449 6.65258 16.1524 6.65258Z" fill="#676767"/>
</svg>
