<svg width="24" height="24" viewBox="0 0 24 24" fill="none" xmlns="http://www.w3.org/2000/svg">
<path fill-rule="evenodd" clip-rule="evenodd" d="M4.99805 11.5C4.99805 7.91015 7.9082 5 11.498 5C15.0879 5 17.998 7.91015 17.998 11.5C17.998 13.2855 17.2799 14.9007 16.1136 16.0767L16.1665 16.1292L16.1136 16.0767C15.6774 16.5166 15.1792 16.8943 14.6337 17.1954C13.7052 17.7079 12.6377 18 11.498 18C7.9082 18 4.99805 15.0899 4.99805 11.5ZM17.145 16.4359C18.2991 15.1167 18.998 13.3903 18.998 11.5C18.998 7.35787 15.6402 4 11.498 4C7.35592 4 3.99805 7.35787 3.99805 11.5C3.99805 15.6421 7.35592 19 11.498 19C12.811 19 14.0442 18.663 15.1169 18.0709L14.8753 17.6331L15.1169 18.0709C15.591 17.8092 16.0337 17.4976 16.4382 17.1433L19.1484 19.8536C19.3437 20.0488 19.6602 20.0488 19.8555 19.8536C20.0508 19.6583 20.0508 19.3417 19.8555 19.1464L17.145 16.4359Z" fill="#232323"/>
</svg>
