<svg width="24" height="24" viewBox="0 0 24 24" fill="none" xmlns="http://www.w3.org/2000/svg">
<path fill-rule="evenodd" clip-rule="evenodd" d="M15.2148 5.10624C13.1489 4.80319 10.9109 5.90879 10.5186 8.46377C10.4883 8.6611 10.3495 8.82461 10.1598 8.88664C9.97 8.94867 9.76148 8.89867 9.62047 8.75732C9.35347 8.48967 8.80195 8.37231 8.26882 8.55061C7.77417 8.71604 7.40464 9.09998 7.40464 9.72489C7.40464 10.0173 7.16761 10.2543 6.87522 10.2543C5.90415 10.2543 5.21446 10.6141 4.76205 11.1242C4.30091 11.6442 4.05885 12.3528 4.05884 13.0788C4.05883 13.8047 4.30086 14.5132 4.76204 15.0332C5.21449 15.5434 5.90433 15.9032 6.87581 15.9032H9.10388C9.39628 15.9032 9.6333 16.1402 9.6333 16.4326C9.6333 16.725 9.39628 16.962 9.10388 16.962H6.87581C5.6162 16.962 4.63284 16.4833 3.96986 15.7358C3.31561 14.9981 2.99998 14.0297 3 13.0787C3.00002 12.1278 3.31567 11.1594 3.96983 10.4217C4.54616 9.77179 5.36462 9.32506 6.39615 9.21948C6.57686 8.34718 7.21989 7.78493 7.93298 7.54644C8.46869 7.36727 9.09521 7.35448 9.63845 7.55112C10.4365 4.83796 13.0654 3.72078 15.3685 4.05861C16.6274 4.24327 17.8345 4.86279 18.6346 5.92729C19.391 6.93361 19.7478 8.28998 19.4937 9.94051C20.8139 10.9936 21.2364 12.6586 20.878 14.0889C20.4896 15.639 19.1783 16.9357 17.1312 16.9357H15.7934C15.501 16.9357 15.2639 16.6987 15.2639 16.4063C15.2639 16.1139 15.501 15.8769 15.7934 15.8769H17.1312C18.6519 15.8769 19.5704 14.9512 19.8509 13.8316C20.1369 12.6903 19.7536 11.3701 18.6209 10.613C18.4428 10.494 18.354 10.2794 18.3959 10.0693C18.7054 8.51765 18.3887 7.36242 17.7882 6.56347C17.1807 5.75523 16.2416 5.25685 15.2148 5.10624Z" fill="#676767"/>
<path fill-rule="evenodd" clip-rule="evenodd" d="M12.7061 19.8819C12.4137 19.8819 12.1766 19.6449 12.1766 19.3525L12.1766 12.1599L9.7112 14.6253C9.50445 14.8321 9.16923 14.8321 8.96248 14.6253C8.75573 14.4186 8.75573 14.0834 8.96248 13.8766L12.3317 10.5074C12.5385 10.3006 12.8737 10.3006 13.0804 10.5074L16.4496 13.8766C16.6564 14.0834 16.6564 14.4186 16.4496 14.6253C16.2429 14.8321 15.9077 14.8321 15.7009 14.6253L13.2355 12.1599L13.2355 19.3525C13.2355 19.6449 12.9984 19.8819 12.7061 19.8819Z" fill="#676767"/>
</svg>
