<svg width="200" height="25" viewBox="0 0 200 25" fill="none" xmlns="http://www.w3.org/2000/svg">
<g clip-path="url(#clip0_301_138)">
<path d="M19.1135 7.09052C18.5231 7.00991 17.9698 6.75602 17.5236 6.36091C17.0774 5.96581 16.7585 5.4473 16.6071 4.8709C16.4556 4.2945 16.4785 3.68611 16.6729 3.12274C16.8673 2.55937 17.2243 2.06631 17.6989 1.70589C18.1736 1.34547 18.7444 1.13386 19.3393 1.0979C19.9341 1.06194 20.5263 1.2032 21.0409 1.50382C21.5555 1.80444 21.9693 2.25095 22.2301 2.7868C22.491 3.32266 22.587 3.9238 22.5061 4.51424C22.397 5.30536 21.9785 6.02094 21.3425 6.50392C20.7065 6.9869 19.9049 7.19784 19.1135 7.09052ZM19.7291 2.58884C19.4294 2.54763 19.1241 2.59624 18.852 2.72854C18.5799 2.86084 18.3531 3.07089 18.2004 3.33209C18.0477 3.59329 17.9759 3.89388 17.9941 4.19591C18.0122 4.49793 18.1196 4.7878 18.3025 5.02881C18.4855 5.26981 18.7358 5.45114 19.0218 5.54986C19.3078 5.64858 19.6167 5.66029 19.9093 5.58343C20.202 5.50657 20.4652 5.34464 20.6658 5.11812C20.8664 4.8916 20.9954 4.61064 21.0363 4.31084C21.0903 3.90931 20.9832 3.50273 20.7382 3.18001C20.4932 2.85729 20.1304 2.64473 19.7291 2.58884Z" fill="#232323"/>
<path d="M23.4338 9.69039C23.6594 10.9175 23.686 12.1728 23.5124 13.4084C23.1681 15.9196 22.0247 18.2533 20.2513 20.0643C18.4778 21.8752 16.1686 23.0673 13.6651 23.4641C11.1617 23.8609 8.597 23.4414 6.35046 22.2677C4.10391 21.0939 2.29483 19.2282 1.19081 16.9466C0.0867983 14.665 -0.253502 12.0885 0.220237 9.59849C0.693976 7.10846 1.95659 4.83704 3.82133 3.12023C5.68606 1.40341 8.05388 0.332382 10.5745 0.0655866C13.0951 -0.201209 15.6347 0.350422 17.8175 1.63882L17.0636 2.91339C15.0526 1.72917 12.6992 1.26262 10.3885 1.59009C8.07778 1.91757 5.94667 3.01967 4.34391 4.71604C2.74114 6.41241 1.76165 8.60261 1.56572 10.9281C1.36979 13.2537 1.96902 15.5769 3.26536 17.5175C4.5617 19.4581 6.47838 20.9012 8.7017 21.6107C10.925 22.3202 13.3233 22.254 15.5041 21.4229C17.6849 20.5919 19.5191 19.0452 20.7064 17.036C21.8937 15.0269 22.3638 12.6741 22.0399 10.3629" fill="#232323"/>
</g>
<g clip-path="url(#clip1_301_138)">
<path d="M34 7.90473H45.0515V2.5H46.4631V20.4082H45.0515V9.31641H35.452V18.9965H45.0515L43.6398 20.4082H34V7.90473Z" fill="#232323"/>
<path d="M55.3765 19.2749C52.4321 19.2749 50.2944 16.9356 50.2944 14.1122H61.2652C61.1442 9.67548 58.5225 7.57812 55.0941 7.57812C51.5851 7.57812 48.7617 10.4822 48.7617 14.0719C48.7617 17.6616 51.5044 20.5656 55.3765 20.5656C57.5948 20.5656 59.0468 19.5573 60.1762 18.5489L59.2485 17.5406C58.2402 18.4279 57.1511 19.2749 55.3765 19.2749ZM55.0538 8.90914C57.3528 8.90914 59.3292 10.2402 59.6115 12.8215H50.4154C50.8591 10.4822 52.8354 8.90914 55.0538 8.90914Z" fill="#232323"/>
<path d="M67.3551 20.4097H63.5234V7.90625H67.3551V11.6976L71.1465 7.90625H76.0269V20.4097H72.1952V11.6976H67.3551V20.4097Z" fill="#232323"/>
<path d="M81.6743 12.5379H86.837C86.6353 11.2069 85.506 10.6019 84.296 10.6019C83.3683 10.6422 82.0373 11.0456 81.6743 12.5379ZM78.0039 14.1109C78.0039 10.4002 80.6256 7.61719 84.4976 7.61719C87.684 7.61719 90.5881 9.71454 90.5881 13.7076C90.5881 14.0706 90.5477 14.4336 90.5074 14.8369H81.6743C81.8356 16.531 83.2876 17.1763 84.417 17.1763C85.5867 17.1763 86.3127 16.4906 86.837 15.5629L89.983 17.4183C88.8134 19.2333 86.958 20.645 84.4573 20.645C81.0693 20.6047 78.0039 17.983 78.0039 14.1109Z" fill="#232323"/>
<path d="M98.2914 4.11719V7.90856H102.405V11.2563H98.2914V16.9433H102.405V20.412H94.4597V11.2563H91.1523L98.2914 4.11719Z" fill="#232323"/>
</g>
<path d="M110.1 20.084C109.617 20.084 109.218 19.685 109.218 19.181C109.218 18.677 109.617 18.299 110.1 18.299C110.583 18.299 110.982 18.677 110.982 19.181C110.982 19.685 110.583 20.084 110.1 20.084ZM118.252 20.084C116.446 20.084 114.724 19.475 113.863 18.677L114.346 17.837C115.186 18.551 116.677 19.16 118.294 19.16C120.604 19.16 121.528 18.341 121.528 17.102C121.528 13.91 114.262 16.262 114.262 11.957C114.262 10.298 115.648 8.954 118.42 8.954C119.806 8.954 121.318 9.374 122.179 10.025L121.696 10.865C120.772 10.193 119.575 9.878 118.399 9.878C116.257 9.878 115.312 10.76 115.312 11.936C115.312 15.233 122.578 12.902 122.578 17.081C122.578 18.866 121.045 20.084 118.252 20.084ZM131.22 18.572L131.661 19.307C131.115 19.832 130.233 20.084 129.414 20.084C127.482 20.084 126.432 18.95 126.432 17.102V6.644H127.482V9.038H130.968V9.941H127.482V16.997C127.482 18.404 128.175 19.181 129.519 19.181C130.17 19.181 130.779 18.971 131.22 18.572ZM139.521 20.084C136.371 20.084 134.04 17.774 134.04 14.519C134.04 11.264 136.371 8.954 139.521 8.954C142.671 8.954 145.002 11.264 145.002 14.519C145.002 17.774 142.671 20.084 139.521 20.084ZM139.521 19.139C142.041 19.139 143.931 17.27 143.931 14.519C143.931 11.768 142.041 9.899 139.521 9.899C137.001 9.899 135.111 11.768 135.111 14.519C135.111 17.27 137.001 19.139 139.521 19.139ZM150.318 11.432C150.99 9.836 152.439 8.954 154.497 8.954V9.983C154.413 9.983 154.329 9.962 154.245 9.962C151.809 9.962 150.36 11.579 150.36 14.288V20H149.31V9.038H150.318V11.432ZM167.031 9.038H168.081V20H167.052V17.417C166.191 19.118 164.532 20.084 162.558 20.084C159.471 20.084 157.14 17.795 157.14 14.519C157.14 11.222 159.471 8.954 162.558 8.954C164.511 8.954 166.149 9.92 167.031 11.579V9.038ZM162.621 19.139C165.141 19.139 167.031 17.27 167.031 14.519C167.031 11.768 165.141 9.899 162.621 9.899C160.101 9.899 158.211 11.768 158.211 14.519C158.211 17.27 160.101 19.139 162.621 19.139ZM182.42 9.038H183.428V18.824C183.428 22.499 181.643 24.158 178.115 24.158C176.12 24.158 174.209 23.528 173.096 22.415L173.663 21.617C174.755 22.625 176.33 23.213 178.094 23.213C181.013 23.213 182.378 21.869 182.378 18.95V17.102C181.475 18.698 179.795 19.601 177.821 19.601C174.713 19.601 172.361 17.396 172.361 14.267C172.361 11.138 174.713 8.954 177.821 8.954C179.837 8.954 181.538 9.878 182.42 11.516V9.038ZM177.905 18.656C180.509 18.656 182.399 16.85 182.399 14.267C182.399 11.684 180.509 9.899 177.905 9.899C175.322 9.899 173.432 11.684 173.432 14.267C173.432 16.85 175.322 18.656 177.905 18.656ZM193.417 19.139C194.824 19.139 196.084 18.635 196.924 17.606L197.533 18.299C196.567 19.475 195.076 20.084 193.396 20.084C190.078 20.084 187.726 17.774 187.726 14.519C187.726 11.264 189.952 8.954 193.06 8.954C195.979 8.954 198.058 11.138 198.205 14.057L188.944 15.863C189.469 17.879 191.17 19.139 193.417 19.139ZM193.06 9.878C190.54 9.878 188.755 11.768 188.755 14.435C188.755 14.645 188.776 14.876 188.797 15.086L197.155 13.448C196.861 11.495 195.307 9.878 193.06 9.878Z" fill="#232323"/>
<defs>
<clipPath id="clip0_301_138">
<rect width="24" height="24" fill="white"/>
</clipPath>
<clipPath id="clip1_301_138">
<rect width="69" height="19" fill="white" transform="translate(34 2.5)"/>
</clipPath>
</defs>
</svg>
